<?xml version="1.0" standalone="no"?>
<!DOCTYPE svg PUBLIC "-//W3C//DTD SVG 20010904//EN"
 "http://www.w3.org/TR/2001/REC-SVG-20010904/DTD/svg10.dtd">
<svg version="1.0" xmlns="http://www.w3.org/2000/svg"
 width="1024.000000pt" height="1024.000000pt" viewBox="0 0 1024.000000 1024.000000"
 preserveAspectRatio="xMidYMid meet">

<g transform="translate(0.000000,1024.000000) scale(0.100000,-0.100000)"
fill="#000000" stroke="none">
<path d="M0 5120 l0 -5120 5120 0 5120 0 0 5120 0 5120 -5120 0 -5120 0 0
-5120z m5248 2728 c275 -253 563 -594 777 -921 45 -69 75 -105 84 -102 7 3 61
35 120 72 144 91 438 241 594 302 206 82 561 182 578 163 16 -17 91 -277 123
-425 75 -349 101 -620 92 -952 -3 -126 -9 -245 -12 -264 -6 -32 -5 -33 17 -28
171 43 730 57 949 24 118 -18 253 -47 303 -66 l29 -11 -43 -78 c-181 -330
-441 -728 -718 -1097 -777 -1037 -1706 -1816 -2486 -2085 -179 -61 -285 -81
-480 -87 -204 -6 -341 13 -531 75 -926 305 -2047 1320 -2909 2637 -205 313
-391 636 -372 646 20 12 236 57 337 71 144 20 610 17 775 -5 71 -10 140 -20
153 -24 22 -5 22 -4 15 38 -4 24 -8 177 -8 339 1 224 5 329 19 435 34 267 94
548 164 770 l28 90 35 -3 c108 -10 397 -96 595 -178 139 -57 386 -185 537
-278 l137 -84 72 106 c146 219 293 406 499 637 113 127 383 395 398 395 4 0
62 -51 129 -112z"/>
<path d="M5025 7349 c-301 -314 -630 -779 -823 -1164 -179 -359 -269 -670
-296 -1026 l-5 -66 84 -83 c56 -56 86 -79 89 -69 49 163 128 329 205 431 198
261 513 417 842 418 245 0 458 -71 652 -216 181 -136 299 -306 382 -551 l31
-92 82 82 81 82 -9 120 c-20 280 -80 506 -212 807 -185 423 -540 940 -919
1342 l-84 89 -100 -104z"/>
<path d="M3090 6912 c-53 -211 -95 -505 -106 -737 -6 -133 8 -484 22 -555 4
-21 18 -30 82 -54 112 -41 304 -135 398 -193 l81 -50 17 121 c43 295 167 661
321 954 30 57 55 107 55 111 0 13 -178 130 -320 210 -141 80 -300 154 -441
205 l-97 35 -12 -47z"/>
<path d="M7005 6901 c-223 -89 -424 -194 -627 -327 l-97 -63 41 -73 c172 -303
319 -737 353 -1046 l7 -62 32 19 c120 74 355 186 473 227 l52 18 8 86 c4 47 8
218 8 380 0 358 -9 433 -102 868 -3 12 -10 22 -17 22 -6 -1 -65 -22 -131 -49z"/>
<path d="M5045 5443 c-120 -17 -272 -82 -367 -158 -143 -113 -229 -274 -308
-578 l-29 -110 63 -81 c296 -381 531 -886 677 -1456 22 -85 41 -159 42 -164 2
-5 20 58 41 140 87 339 199 639 350 939 115 226 194 357 314 518 l83 111 -21
84 c-37 149 -81 275 -127 365 -137 266 -437 429 -718 390z"/>
<path d="M1890 5395 c0 -3 41 -67 92 -143 774 -1161 1632 -2015 2418 -2410
133 -67 389 -172 419 -172 6 0 7 11 1 28 -5 15 -27 101 -51 192 -200 789 -509
1361 -980 1815 -422 406 -875 623 -1431 684 -99 11 -468 15 -468 6z"/>
<path d="M7853 5385 c-553 -72 -1027 -307 -1428 -709 -369 -371 -641 -831
-833 -1411 -56 -171 -168 -582 -160 -590 8 -8 198 61 322 116 702 314 1568
1118 2293 2129 111 155 323 466 323 474 0 11 -415 4 -517 -9z"/>
</g>
</svg>
